<svg xmlns="http://www.w3.org/2000/svg" id="svg479073" height="768px" width="1024px" version="1.1">
  <defs id="defs479077"></defs>
  <linearGradient spreadMethod="pad" y2="30%" x2="-10%" y1="120%" x1="30%" id="3d_gradient2-logo-bff5b7dc-13fe-440b-9b5b-d3c226b7ac3b">
    <stop id="stop479054" stop-opacity="1" stop-color="#ffffff" offset="0%"></stop>
    <stop id="stop479056" stop-opacity="1" stop-color="#000000" offset="100%"></stop>
  </linearGradient>
  <linearGradient gradientTransform="rotate(-30)" spreadMethod="pad" y2="30%" x2="-10%" y1="120%" x1="30%" id="3d_gradient3-logo-bff5b7dc-13fe-440b-9b5b-d3c226b7ac3b">
    <stop id="stop479059" stop-opacity="1" stop-color="#ffffff" offset="0%"></stop>
    <stop id="stop479061" stop-opacity="1" stop-color="#cccccc" offset="50%"></stop>
    <stop id="stop479063" stop-opacity="1" stop-color="#000000" offset="100%"></stop>
  </linearGradient>
  <g id="slogan" style="font-style:normal;font-weight:300;font-size:32px;line-height:1;font-family:Overpass;font-variant-ligatures:none;text-align:center;text-anchor:middle" transform="translate(0 0)"></g>
      <g id="title" style="font-style:normal;font-weight:400;font-size:72px;line-height:1;font-family:'Brandmark Dots 1 Color';font-variant-ligatures:normal;text-align:center;text-anchor:middle" transform="translate(0 0)">
        <g id="path479082" aria-label="D" transform="translate(0 313.804) translate(257.72039375 38.696) scale(1.25) translate(-328.77688 50.4)"> <path class="c1" d="M113.60889,119.4333c-2.01563,1.65625-5.04004,1.44043-6.76855-0.57617
c-1.43945-1.72852-1.51172-4.46387,0.50391-6.48047c0.50488-0.57617,1.15234-1.2959,1.65625-1.87207 c2.16016-2.66406,3.38477-6.33691,3.38477-10.5127c0-10.44141-5.54492-15.98535-16.3457-15.98535h-8.35254v36.43457
c0,2.59277-2.16016,4.75293-4.82422,4.75293c-2.59277,0-4.75293-2.16016-4.75293-4.75293V79.5417 c0-2.5918,2.16016-4.75195,4.75293-4.75195h0.07227c0,0,0,0,0.07129,0h13.0332c15.98535,0,25.85059,9.57617,25.85059,25.20215
C121.89014,107.55244,118.93799,114.89717,113.60889,119.4333z" transform="translate(250.667 -125.18975)" stroke-width="0" stroke-linejoin="miter" stroke-miterlimit="2" fill="#cccdce" stroke="#cccdce"></path> <path class="c3"
d="M97.19189,125.19405c-2.5918,0-4.75293-2.16016-4.75293-4.75293c0-2.66406,2.16113-4.82422,4.75293-4.82422 c2.66406,0,4.82422,2.16016,4.82422,4.82422C102.01611,123.03389,99.85596,125.19405,97.19189,125.19405z" transform="translate(250.667 -125.18975)"
stroke-width="0" stroke-linejoin="miter" stroke-miterlimit="2" fill="#2b7fed" stroke="#2b7fed"></path> </g>
        <g id="path479084" aria-label="I" transform="translate(0 313.804) translate(331.31569375000004 37.07599999999999) scale(1.25) translate(-382.65312 51.696)"> <path class="c3"
d="M95.21143,78.2458c0-2.59277,2.16016-4.75293,4.75293-4.75293c2.66406,0,4.82422,2.16016,4.82422,4.75293 c0,2.66406-2.16016,4.82422-4.82422,4.82422C97.37158,83.07002,95.21143,80.90987,95.21143,78.2458z" transform="translate(287.44169 -125.18887)" stroke-width="0"
stroke-linejoin="miter" stroke-miterlimit="2" fill="#2b7fed" stroke="#2b7fed"></path> <path class="c1" d="M95.21143,120.44112V92.57491c0-2.5918,2.16016-4.75195,4.75293-4.75195
c2.66406,0,4.82422,2.16016,4.82422,4.75195v27.86621c0,2.59277-2.16016,4.75293-4.82422,4.75293 C97.37158,125.19405,95.21143,123.03389,95.21143,120.44112z" transform="translate(287.44169 -125.18887)" stroke-width="0" stroke-linejoin="miter" stroke-miterlimit="2"
fill="#cccdce" stroke="#cccdce"></path> </g>
        <g id="path479086" aria-label="M" transform="translate(0 313.804) translate(367.62429375 38.707083749999995) scale(1.25) translate(-406.7 50.391133)"> <path class="c1"
d="M117.89355,95.59932l-14.04102,27.14648c-0.86426,1.51172-2.44824,2.44824-4.17676,2.44824 c-1.72754,0-3.31152-0.93652-4.17578-2.52051L82.10645,96.03096v24.41016c0,2.59277-2.16016,4.75293-4.82422,4.75293
c-2.59277,0-4.75293-2.16016-4.75293-4.75293V79.5417c0-2.16016,1.44043-4.03223,3.60059-4.6084 c2.08789-0.50391,4.32031,0.43262,5.3291,2.37598l18.28906,34.70703l18.79395-34.77832
c1.00781-1.87207,3.24023-2.80859,5.32813-2.30469c2.08789,0.57617,3.60059,2.44824,3.60059,4.6084v26.57031 c0,2.59277-2.16016,4.75293-4.82422,4.75293c-2.59277,0-4.75293-2.16016-4.75293-4.75293V95.59932z" transform="translate(334.1707 -125.18939)" stroke-width="0"
stroke-linejoin="miter" stroke-miterlimit="2" fill="#cccdce" stroke="#cccdce"></path> <path class="c3" d="M122.64648,125.19405c-2.59277,0-4.75293-2.16016-4.75293-4.75293 c0-2.66406,2.16016-4.82422,4.75293-4.82422c2.66406,0,4.82422,2.16016,4.82422,4.82422
C127.4707,123.03389,125.31055,125.19405,122.64648,125.19405z" transform="translate(334.1707 -125.18939)" stroke-width="0" stroke-linejoin="miter" stroke-miterlimit="2" fill="#2b7fed" stroke="#2b7fed"></path> </g>
        <g id="path479088" aria-label="S" transform="translate(0 313.804) translate(456.48444375 37.07599999999999) scale(1.25) translate(-472.78812 51.696)"> <path class="c3" d="M90.67529,115.04073c0,2.66406-2.16016,4.75293-4.82422,4.75293
c-2.59277,0-4.75293-2.08887-4.75293-4.75293s2.16016-4.75195,4.75293-4.75195 C88.51514,110.28877,90.67529,112.37666,90.67529,115.04073z" transform="translate(391.68998 -125.18887)" stroke-width="0" stroke-linejoin="miter" stroke-miterlimit="2" fill="#2b7fed"
stroke="#2b7fed"></path> <path class="c1" d="M102.48486,126.48994c-3.74512,0-8.78516-1.44043-8.78516-5.1123 c0-3.02441,2.01563-4.68066,4.39258-4.53613c2.44824,0.14355,5.1123,1.00781,7.7041-0.2168
c2.0166-0.93555,3.52832-2.73633,3.52832-5.25586c0-3.02441-3.38379-4.96875-10.72852-7.63281 c-6.625-2.37598-16.56152-5.32813-16.63379-15.19336c0-3.74414,1.44043-7.27246,4.10449-10.00879
c2.30469-2.30469,6.55273-5.04102,13.96973-5.04102c8.42383,0,14.04102,4.46484,15.91309,7.12891 c1.2959,1.72852,1.08008,4.03223-0.21582,5.68848c-1.72852,2.16016-4.32031,1.94434-6.12109,0.36035
c-1.2959-1.15234-4.32031-4.17676-9.86426-4.17676c-4.8252,0-8.20898,2.52051-8.20898,6.04883 c0,2.30371,2.52051,4.24805,10.00879,7.12891c9.2168,3.52832,17.35352,7.41602,17.35352,16.27344 C118.90186,119.07295,113.93311,126.48994,102.48486,126.48994z"
transform="translate(391.68998 -125.18887)" stroke-width="0" stroke-linejoin="miter" stroke-miterlimit="2" fill="#cccdce" stroke="#cccdce"></path> </g>
        <g id="path479090" aria-label="p" transform="translate(0 313.804) translate(524.32116875 38.696) scale(1.25) translate(-522.0575 50.4)"> <path class="c1" d="M116.52588,101.7917c-1.36816,2.23242-4.32031,2.95215-6.55273,1.51172
c-2.30469-1.36719-2.95215-4.32031-1.58398-6.55176c0.86426-1.44043,1.44043-3.09668,1.44043-4.6084 c0-1.87207-0.43262-7.77734-6.19336-7.77734H90.24365v36.0752c0,2.59277-2.16016,4.75293-4.82422,4.75293
c-2.59277,0-4.75293-2.16016-4.75293-4.75293V79.5417c0-2.5918,2.16016-4.75195,4.75293-4.75195h18.2168 c10.80176,0,15.69727,9,15.69727,17.35352C119.3335,95.3835,118.32568,98.83955,116.52588,101.7917z" transform="translate(441.391 -125.18975)" stroke-width="0"
stroke-linejoin="miter" stroke-miterlimit="2" fill="#cccdce" stroke="#cccdce"></path> <path class="c3" d="M99.74854,109.35225c-2.59277,0-4.75293-2.16016-4.75293-4.82422c0-2.5918,2.16016-4.75195,4.75293-4.75195
c2.66406,0,4.75195,2.16016,4.75195,4.75195C104.50049,107.19209,102.4126,109.35225,99.74854,109.35225z" transform="translate(441.391 -125.18975)" stroke-width="0" stroke-linejoin="miter" stroke-miterlimit="2" fill="#2b7fed" stroke="#2b7fed"></path> </g>
        <g id="path479092" aria-label="e" transform="translate(0 313.804) translate(589.63366875 38.696) scale(1.25) translate(-569.3075 50.4)"> <path class="c1" d="M87.75879,125.19405c-2.5918,0-4.75195-2.16016-4.75195-4.75293V79.5417
c0-2.5918,2.16016-4.75195,4.75195-4.75195h9.9375c2.5918,0,4.75195,2.16016,4.75195,4.75195 c0,2.66406-2.16016,4.82422-4.75195,4.82422h-5.1123V95.3835h16.70508c2.66406,0,4.75195,1.94434,4.75195,4.6084
c0,2.5918-2.08789,4.53613-4.75195,4.53613H92.58398v11.08887h19.65723c2.66406,0,4.75195,2.16016,4.75195,4.82422 c0,2.59277-2.08789,4.75293-4.75195,4.75293H87.75879z" transform="translate(486.30066 -125.18975)" stroke-width="0" stroke-linejoin="miter"
stroke-miterlimit="2" fill="#cccdce" stroke="#cccdce"></path> <path class="c3" d="M112.02539,84.36592c-2.66406,0-4.82422-2.16016-4.82422-4.82422c0-2.5918,2.16016-4.75195,4.82422-4.75195
c2.5918,0,4.75195,2.16016,4.75195,4.75195C116.77734,82.20576,114.61719,84.36592,112.02539,84.36592z" transform="translate(486.30066 -125.18975)" stroke-width="0" stroke-linejoin="miter" stroke-miterlimit="2" fill="#2b7fed" stroke="#2b7fed"></path> </g>
        <g id="path479094" aria-label="c" transform="translate(0 313.804) translate(647.7321062499999 37.07599999999999) scale(1.25) translate(-610.78625 51.696)"> <path class="c1" d="M95.49951,114.89717c2.73633,1.58398,5.6167,2.37598,9.14502,2.73633
c3.45605,0.35938,4.89648,2.08789,4.89648,4.32031c0,2.37598-1.58496,4.53613-6.04883,4.53613 c-3.67285,0-7.34473-0.79199-11.0166-2.44824c-9.14502-4.24805-15.48145-13.39355-15.48145-24.0498
c0-14.68945,11.88086-26.49902,26.49805-26.49902c4.82422,0,11.59277,0.93652,17.06543,5.40137 c2.01563,1.65527,2.16016,4.53613,0.64844,6.69629c-1.29688,1.94434-3.96094,2.01563-6.625,0.57617
c-2.87988-1.65625-6.55273-3.09668-11.08887-3.09668c-9.36084,0-16.92139,7.56055-16.92139,16.92188 C86.5708,106.47237,90.09912,111.94502,95.49951,114.89717z" transform="translate(533.79212 -125.18888)" stroke-width="0" stroke-linejoin="miter" stroke-miterlimit="2"
fill="#cccdce" stroke="#cccdce"></path> <path class="c3" d="M113.42871,116.9128c0-2.5918,2.16016-4.75195,4.75293-4.75195c2.66406,0,4.82422,2.16016,4.82422,4.75195
c0,2.66406-2.16016,4.82422-4.82422,4.82422C115.58887,121.73701,113.42871,119.57686,113.42871,116.9128z" transform="translate(533.79212 -125.18888)" stroke-width="0" stroke-linejoin="miter" stroke-miterlimit="2" fill="#2b7fed" stroke="#2b7fed"></path> </g>
        <g id="path479096" aria-label="t" transform="translate(0 313.804) translate(716.4196062499999 38.696) scale(1.25) translate(-660.73625 50.4)"> <path class="c1" d="M104.75244,120.44112c0,2.59277-2.08789,4.75293-4.75293,4.75293
c-2.66406,0-4.75195-2.16016-4.75195-4.75293v-36.0752H84.80615c-2.5918,0-4.75195-2.16016-4.75195-4.82422 c0-2.5918,2.16016-4.75195,4.75195-4.75195h15.19336c2.88086,0,4.75293,2.16016,4.75293,4.75195V120.44112z" transform="translate(580.68205 -125.18975)"
stroke-width="0" stroke-linejoin="miter" stroke-miterlimit="2" fill="#cccdce" stroke="#cccdce"></path> <path class="c3" d="M119.9458,79.5417c0,2.66406-2.16016,4.82422-4.75293,4.82422c-2.66406,0-4.82422-2.16016-4.82422-4.82422
c0-2.5918,2.16016-4.75195,4.82422-4.75195C117.78564,74.78975,119.9458,76.94991,119.9458,79.5417z" transform="translate(580.68205 -125.18975)" stroke-width="0" stroke-linejoin="miter" stroke-miterlimit="2" fill="#2b7fed" stroke="#2b7fed"></path> </g>
              </g>
</svg>
